HIERARCHY
ROOT hip
{
  OFFSET -73.1628 84.4708 21.2842
  CHANNELS 6 Xposition Yposition Zposition Zrotation Xrotation Yrotation
  JOINT abdomen
  {
    OFFSET 0 20.6881 -0.73152
    CHANNELS 3 Zrotation Xrotation Yrotation
    JOINT chest
    {
      OFFSET 0 11.7043 -0.48768
      CHANNELS 3 Zrotation Xrotation Yrotation
      JOINT neck
      {
        OFFSET 0 22.1894 -2.19456
        CHANNELS 3 Zrotation Xrotation Yrotation
        JOINT head
        {
          OFFSET -0.24384 7.07133 1.2192
          CHANNELS 3 Zrotation Xrotation Yrotation
          JOINT leftEye
          {
            OFFSET 4.14528 8.04674 8.04672
            CHANNELS 3 Zrotation Xrotation Yrotation
            End Site
            {
              OFFSET 1 0 0
            }
          }
          JOINT rightEye
          {
            OFFSET -3.6576 8.04674 8.04672
            CHANNELS 3 Zrotation Xrotation Yrotation
            End Site
            {
              OFFSET 1 0 0
            }
          }
        }
      }
      JOINT rCollar
      {
        OFFSET -2.68224 19.2634 -4.8768
        CHANNELS 3 Zrotation Xrotation Yrotation
        JOINT rShldr
        {
          OFFSET -8.77824 -1.95073 1.46304
          CHANNELS 3 Zrotation Xrotation Yrotation
          JOINT rForeArm
          {
            OFFSET -28.1742 -1.7115 0.48768
            CHANNELS 3 Zrotation Xrotation Yrotation
            JOINT rHand
            {
              OFFSET -22.5879 0.773209 7.07136
              CHANNELS 3 Zrotation Xrotation Yrotation
              JOINT rThumb1
              {
                OFFSET -1.2192 -0.487915 3.41376
                CHANNELS 3 Zrotation Xrotation Yrotation
                JOINT rThumb2
                {
                  OFFSET -3.37035 -0.52449 3.41376
                  CHANNELS 3 Zrotation Xrotation Yrotation
                  End Site
                  {
                    OFFSET -1.78271 -1.18214 1.43049
                  }
                }
              }
              JOINT rIndex1
              {
                OFFSET -7.75947 0.938293 5.60832
                CHANNELS 3 Zrotation Xrotation Yrotation
                JOINT rIndex2
                {
                  OFFSET -2.54057 -0.884171 1.56538
                  CHANNELS 3 Zrotation Xrotation Yrotation
                  End Site
                  {
                    OFFSET -1.62519 -0.234802 1.16502
                  }
                }
              }
              JOINT rMid1
              {
                OFFSET -8.24714 1.18213 3.41376
                CHANNELS 3 Zrotation Xrotation Yrotation
                JOINT rMid2
                {
                  OFFSET -3.10165 -0.590103 1.0647
                  CHANNELS 3 Zrotation Xrotation Yrotation
                  End Site
                  {
                    OFFSET -2.48547 -0.328903 0.83742
                  }
                }
              }
              JOINT rRing1
              {
                OFFSET -8.82822 0.546677 1.51678
                CHANNELS 3 Zrotation Xrotation Yrotation
                JOINT rRing2
                {
                  OFFSET -2.60934 -0.819778 -0.0198488
                  CHANNELS 3 Zrotation Xrotation Yrotation
                  End Site
                  {
                    OFFSET -2.33842 -0.294052 0.168128
                  }
                }
              }
              JOINT rPinky1
              {
                OFFSET -8.27202 -0.0477905 -0.4584
                CHANNELS 3 Zrotation Xrotation Yrotation
                JOINT rPinky2
                {
                  OFFSET -1.82734 -0.647385 -0.700984
                  CHANNELS 3 Zrotation Xrotation Yrotation
                  End Site
                  {
                    OFFSET -1.69225 -0.51767 -0.607171
                  }
                }
              }
            }
          }
        }
      }
      JOINT lCollar
      {
        OFFSET 2.68224 19.2634 -4.8768
        CHANNELS 3 Zrotation Xrotation Yrotation
        JOINT lShldr
        {
          OFFSET 8.77824 -1.95073 1.46304
          CHANNELS 3 Zrotation Xrotation Yrotation
          JOINT lForeArm
          {
            OFFSET 28.1742 -1.7115 0.48768
            CHANNELS 3 Zrotation Xrotation Yrotation
            JOINT lHand
            {
              OFFSET 22.5879 0.773209 7.07136
              CHANNELS 3 Zrotation Xrotation Yrotation
              JOINT lThumb1
              {
                OFFSET 1.2192 -0.487915 3.41376
                CHANNELS 3 Zrotation Xrotation Yrotation
                JOINT lThumb2
                {
                  OFFSET 3.37035 -0.52449 3.41376
                  CHANNELS 3 Zrotation Xrotation Yrotation
                  End Site
                  {
                    OFFSET 1.78271 -1.18214 1.43049
                  }
                }
              }
              JOINT lIndex1
              {
                OFFSET 7.75947 0.938293 5.60832
                CHANNELS 3 Zrotation Xrotation Yrotation
                JOINT lIndex2
                {
                  OFFSET 2.54057 -0.884171 1.56538
                  CHANNELS 3 Zrotation Xrotation Yrotation
                  End Site
                  {
                    OFFSET 1.62519 -0.234802 1.16502
                  }
                }
              }
              JOINT lMid1
              {
                OFFSET 8.24714 1.18213 3.41376
                CHANNELS 3 Zrotation Xrotation Yrotation
                JOINT lMid2
                {
                  OFFSET 3.10165 -0.590103 1.0647
                  CHANNELS 3 Zrotation Xrotation Yrotation
                  End Site
                  {
                    OFFSET 2.48547 -0.328903 0.83742
                  }
                }
              }
              JOINT lRing1
              {
                OFFSET 8.82822 0.546677 1.51678
                CHANNELS 3 Zrotation Xrotation Yrotation
                JOINT lRing2
                {
                  OFFSET 2.60934 -0.819778 -0.0198488
                  CHANNELS 3 Zrotation Xrotation Yrotation
                  End Site
                  {
                    OFFSET 2.33842 -0.294052 0.168128
                  }
                }
              }
              JOINT lPinky1
              {
                OFFSET 8.27202 -0.0477905 -0.4584
                CHANNELS 3 Zrotation Xrotation Yrotation
                JOINT lPinky2
                {
                  OFFSET 1.82734 -0.647385 -0.700984
                  CHANNELS 3 Zrotation Xrotation Yrotation
                  End Site
                  {
                    OFFSET 1.69225 -0.51767 -0.607171
                  }
                }
              }
            }
          }
        }
      }
    }
  }
  JOINT rButtock
  {
    OFFSET -8.77824 4.35084 1.2192
    CHANNELS 3 Zrotation Xrotation Yrotation
    JOINT rThigh
    {
      OFFSET 0 -1.70687 -2.19456
      CHANNELS 3 Zrotation Xrotation Yrotation
      JOINT rShin
      {
        OFFSET 0 -36.8199 0.73152
        CHANNELS 3 Zrotation Xrotation Yrotation
        JOINT rFoot
        {
          OFFSET 0.73152 -45.1104 -5.12064
          CHANNELS 3 Zrotation Xrotation Yrotation
          End Site
          {
            OFFSET -1.1221 -3.69964 12.103
          }
        }
      }
    }
  }
  JOINT lButtock
  {
    OFFSET 8.77824 4.35084 1.2192
    CHANNELS 3 Zrotation Xrotation Yrotation
    JOINT lThigh
    {
      OFFSET 0 -1.70687 -2.19456
      CHANNELS 3 Zrotation Xrotation Yrotation
      JOINT lShin
      {
        OFFSET 0 -36.8199 0.73152
        CHANNELS 3 Zrotation Xrotation Yrotation
        JOINT lFoot
        {
          OFFSET -0.73152 -45.1104 -5.12064
          CHANNELS 3 Zrotation Xrotation Yrotation
          End Site
          {
            OFFSET 1.1221 -3.69964 12.103
          }
        }
      }
    }
  }
}
MOTION
Frames:	9
Frame Time:	0.00833333
72.6887 85.4552 55.9721 13.8335 4.03529 -54.0037 -4.20669 -13.2718 1.06442 2.80236 -2.97567 0.417165 -1.87844 13.851 0.467597 5.12661 -30.9701 2.42512 -0 0 0 -0 0 0 1.95276e-013 6.32063e-014 1.22466e-012 83.9961 54.9802 -19.5221 -26.0725 -23.6222 57.0685 -0.199037 -12.6085 -1.80148 -1.77483e-010 -6.61319e-009 -6.3646e-009 -2.43301e-010 -1.15317e-008 -1.10112e-008 -1.77474e-010 -6.61318e-009 -6.36464e-009 7.73091 5.47488 0.417314 -1.77485e-010 -6.61319e-009 -6.36461e-009 2.90554 0.965183 0.102902 -1.77476e-010 -6.61318e-009 -6.36461e-009 10.2786 0.731801 0.0259123 -1.7749e-010 -6.61318e-009 -6.36461e-009 2.22167 -0.733487 -0.20892 1.952e-013 6.32203e-014 1.22441e-012 -93.4944 34.7647 32.7704 15.308 -8.0599 -28.225 6.25195e-005 0.225781 -0.0317316 -9.35478e-010 8.06325e-009 3.93738e-009 -1.6207e-009 1.39666e-008 6.81468e-009 -9.35478e-010 8.06325e-009 3.93739e-009 -7.73091 5.47488 -0.417314 -9.35474e-010 8.06325e-009 3.93738e-009 -2.90554 0.965183 -0.102902 -9.35482e-010 8.06325e-009 3.93738e-009 -10.2786 0.731801 -0.0259123 -9.35469e-010 8.06325e-009 3.93736e-009 -2.22167 -0.733487 0.20892 -2.03217e-016 0 -3.88251e-019 10.9488 -18.6134 14.7671 -0.0831274 27.608 0.671924 -2.25408 -14.0081 -5.69695 2.03217e-016 0 3.88251e-019 3.54869 -42.4481 -4.29889 0.136132 25.3526 -0.432984 2.7589 -8.27486 9.87062 
72.2039 85.5626 56.4384 14.0156 3.94188 -54.7387 -4.27827 -13.3559 1.12291 2.79065 -2.93478 0.432916 -2.1284 13.9239 0.559519 5.71645 -31.3035 2.79844 -0 0 0 -0 0 0 2.45388e-013 1.47308e-013 1.18696e-012 83.9479 54.8062 -19.6175 -26.1916 -23.9363 57.5794 -0.202723 -12.7241 -1.81853 -9.1359e-010 -5.96257e-009 -6.6246e-009 -1.51176e-009 -1.04132e-008 -1.14663e-008 -9.13581e-010 -5.96257e-009 -6.62463e-009 7.73091 5.47488 0.417314 -9.13592e-010 -5.96257e-009 -6.62461e-009 2.90554 0.965183 0.102902 -9.13583e-010 -5.96257e-009 -6.62461e-009 10.2786 0.731801 0.0259123 -9.13596e-010 -5.96257e-009 -6.6246e-009 2.22167 -0.733487 -0.20892 2.45322e-013 1.47321e-013 1.18671e-012 -93.3436 34.5113 32.8651 15.1254 -7.89882 -27.8484 0.000238572 0.304559 -0.042804 -9.27678e-010 7.32536e-009 3.29438e-009 -1.60686e-009 1.26867e-008 5.70123e-009 -9.27678e-010 7.32536e-009 3.29439e-009 -7.73091 5.47488 -0.417314 -9.27674e-010 7.32536e-009 3.29438e-009 -2.90554 0.965183 -0.102902 -9.27682e-010 7.32536e-009 3.29437e-009 -10.2786 0.731801 -0.0259123 -9.27669e-010 7.32536e-009 3.29436e-009 -2.22167 -0.733487 0.20892 -2.03217e-016 0 -3.88251e-019 10.6096 -18.1203 14.6463 -0.0855326 27.2784 0.652667 -2.01455 -13.9777 -4.99375 2.03217e-016 0 3.88251e-019 3.48971 -42.1084 -5.16335 0.114605 23.0254 -0.385208 2.77382 -8.7263 9.69808 
71.7571 85.6934 56.922 14.2069 3.80382 -55.4611 -4.40603 -13.4439 1.19882 2.80926 -2.87784 0.456908 -2.48638 14.0111 0.643244 6.4633 -31.6409 3.20607 -0 0 0 -0 0 0 2.99206e-013 2.33145e-013 1.0279e-012 83.9269 54.589 -19.7698 -26.3013 -24.2331 58.051 -0.208173 -12.8911 -1.84322 -1.88574e-009 -4.73833e-009 -6.6646e-009 -3.18939e-009 -8.30045e-009 -1.1542e-008 -1.88573e-009 -4.73833e-009 -6.66463e-009 7.73091 5.47488 0.417314 -1.88574e-009 -4.73833e-009 -6.66461e-009 2.90554 0.965183 0.102902 -1.88573e-009 -4.73833e-009 -6.66461e-009 10.2786 0.731801 0.0259123 -1.88574e-009 -4.73833e-009 -6.6646e-009 2.22167 -0.733487 -0.20892 2.99156e-013 2.33153e-013 1.02765e-012 -93.2113 34.3663 32.958 14.9575 -7.75326 -27.5021 0.000315622 0.312732 -0.0439538 -7.174e-010 5.60882e-009 1.99773e-009 -1.24301e-009 9.71037e-009 3.456e-009 -7.17402e-010 5.60883e-009 1.99774e-009 -7.73091 5.47488 -0.417314 -7.17397e-010 5.60882e-009 1.99773e-009 -2.90554 0.965183 -0.102902 -7.17404e-010 5.60882e-009 1.99773e-009 -10.2786 0.731801 -0.0259123 -7.17394e-010 5.60882e-009 1.99771e-009 -2.22167 -0.733487 0.20892 -2.03217e-016 0 -3.88251e-019 10.1943 -17.6012 14.4809 -0.0884239 26.9431 0.62965 -1.73889 -13.9655 -4.18135 2.03217e-016 0 3.88251e-019 3.3457 -41.6625 -6.26252 0.0942916 20.6915 -0.339321 2.82588 -9.39958 9.517 
71.2867 85.7994 57.4156 14.3683 3.67197 -56.1346 -4.52306 -13.5149 1.26287 2.83485 -2.8209 0.477854 -2.79203 14.0622 0.704392 7.07423 -31.8979 3.52647 -0 0 0 -0 0 0 3.29878e-013 2.87189e-013 8.33655e-013 83.932 54.3353 -19.9472 -26.3927 -24.4865 58.4536 -0.21327 -13.0433 -1.86577 -2.67871e-009 -3.3991e-009 -6.40495e-009 -4.56071e-009 -5.98339e-009 -1.1098e-008 -2.67871e-009 -3.3991e-009 -6.40498e-009 7.73091 5.47488 0.417314 -2.67871e-009 -3.39911e-009 -6.40497e-009 2.90554 0.965183 0.102902 -2.67871e-009 -3.39911e-009 -6.40497e-009 10.2786 0.731801 0.0259123 -2.67872e-009 -3.3991e-009 -6.40496e-009 2.22167 -0.733487 -0.20892 3.29842e-013 2.87192e-013 8.33403e-013 -93.0473 34.2436 33.0183 14.8006 -7.61904 -27.1792 0.000295638 0.32984 -0.0463584 -4.08926e-010 3.75353e-009 7.28582e-010 -7.09129e-010 6.49375e-009 1.25826e-009 -4.08929e-010 3.75353e-009 7.2859e-010 -7.73091 5.47488 -0.417314 -4.08923e-010 3.75353e-009 7.28581e-010 -2.90554 0.965183 -0.102902 -4.08928e-010 3.75352e-009 7.28574e-010 -10.2786 0.731801 -0.0259123 -4.0892e-010 3.75353e-009 7.28563e-010 -2.22167 -0.733487 0.20892 -2.03217e-016 0 -3.88251e-019 9.79197 -17.0699 14.3078 -0.0915518 26.6291 0.605899 -1.4617 -13.9168 -3.37284 2.03217e-016 0 3.88251e-019 3.19873 -41.1711 -7.47983 0.0765676 18.4493 -0.297585 2.92285 -10.157 9.46675 
70.7585 85.8697 57.9437 14.4632 3.5939 -56.7224 -4.56269 -13.5483 1.28571 2.84414 -2.78004 0.484474 -2.88479 14.0272 0.728525 7.25202 -31.9912 3.63579 -0 0 0 -0 0 0 3.10552e-013 2.75913e-013 6.90379e-013 83.9629 54.0514 -20.1187 -26.458 -24.6715 58.7563 -0.215699 -13.1145 -1.87633 -2.87731e-009 -2.40352e-009 -5.76602e-009 -4.91027e-009 -4.25217e-009 -9.99388e-009 -2.87731e-009 -2.40352e-009 -5.76605e-009 7.73091 5.47488 0.417314 -2.87731e-009 -2.40353e-009 -5.76603e-009 2.90554 0.965183 0.102902 -2.87731e-009 -2.40353e-009 -5.76603e-009 10.2786 0.731801 0.0259123 -2.87731e-009 -2.40353e-009 -5.76603e-009 2.22167 -0.733487 -0.20892 3.10521e-013 2.75913e-013 6.90131e-013 -92.8011 34.0576 33.0157 14.6509 -7.49184 -26.873 0.000232529 0.435421 -0.0611956 -1.06533e-010 2.59935e-009 1.68067e-010 -1.85203e-010 4.493e-009 2.87264e-010 -1.06537e-010 2.59936e-009 1.68073e-010 -7.73091 5.47488 -0.417314 -1.0653e-010 2.59935e-009 1.68064e-010 -2.90554 0.965183 -0.102902 -1.06535e-010 2.59935e-009 1.68057e-010 -10.2786 0.731801 -0.0259123 -1.06528e-010 2.59935e-009 1.68048e-010 -2.22167 -0.733487 0.20892 -2.03217e-016 0 -3.88251e-019 9.48997 -16.5408 14.1631 -0.0945427 26.3631 0.584378 -1.22016 -13.778 -2.68199 2.03217e-016 0 3.88251e-019 3.12033 -40.6985 -8.70577 0.062156 16.3969 -0.262011 3.08119 -10.8594 9.68716 
70.2323 85.9207 58.4536 14.4559 3.60117 -57.2033 -4.46968 -13.5225 1.25942 2.82128 -2.76105 0.472473 -2.63375 13.8672 0.699441 6.74027 -31.859 3.42067 -0 0 0 -0 0 0 2.06119e-013 1.646e-013 6.43888e-013 84.0255 53.7228 -20.273 -26.4974 -24.7845 58.9466 -0.213981 -13.0639 -1.86883 -2.07874e-009 -1.87607e-009 -4.3993e-009 -3.54681e-009 -3.31495e-009 -7.6241e-009 -2.07874e-009 -1.87607e-009 -4.39932e-009 7.73091 5.47488 0.417314 -2.07874e-009 -1.87608e-009 -4.39931e-009 2.90554 0.965183 0.102902 -2.07873e-009 -1.87608e-009 -4.39931e-009 10.2786 0.731801 0.0259123 -2.07874e-009 -1.87608e-009 -4.3993e-009 2.22167 -0.733487 -0.20892 2.06077e-013 1.646e-013 6.43649e-013 -92.4513 33.7779 32.9411 14.5073 -7.371 -26.581 0.000348038 0.675394 -0.0949217 1.63583e-010 2.62088e-009 8.53443e-010 2.84299e-010 4.53106e-009 1.47302e-009 1.63579e-010 2.62089e-009 8.53448e-010 -7.73091 5.47488 -0.417314 1.63585e-010 2.62088e-009 8.53441e-010 -2.90554 0.965183 -0.102902 1.6358e-010 2.62088e-009 8.53434e-010 -10.2786 0.731801 -0.0259123 1.63588e-010 2.62089e-009 8.53426e-010 -2.22167 -0.733487 0.20892 -2.03217e-016 0 -3.88251e-019 9.35134 -15.9984 14.078 -0.0970725 26.1399 0.564835 -1.03065 -13.5119 -2.15822 2.03217e-016 0 3.88251e-019 3.1414 -40.2112 -10.1637 0.0489874 14.4803 -0.232883 3.37788 -11.5647 10.3814 
69.7443 85.9529 58.9109 14.377 3.65958 -57.6008 -4.29206 -13.4539 1.19968 2.78192 -2.75486 0.448296 -2.15432 13.6174 0.629065 5.75843 -31.5581 2.97496 -0 0 0 -0 0 0 4.02153e-014 -2.02772e-014 6.40615e-013 84.1168 53.3515 -20.4271 -26.5173 -24.842 59.0399 -0.209642 -12.9346 -1.84967 -6.01795e-010 -1.57143e-009 -2.45635e-009 -1.01873e-009 -2.75118e-009 -4.25293e-009 -6.01794e-010 -1.57142e-009 -2.45637e-009 7.73091 5.47488 0.417314 -6.01794e-010 -1.57143e-009 -2.45635e-009 2.90554 0.965183 0.102902 -6.01788e-010 -1.57143e-009 -2.45636e-009 10.2786 0.731801 0.0259123 -6.01798e-010 -1.57143e-009 -2.45635e-009 2.22167 -0.733487 -0.20892 4.01523e-014 -2.02751e-014 6.40391e-013 -92.029 33.4521 32.8125 14.3726 -7.25902 -26.3068 0.000928855 0.9991 -0.140424 4.565e-010 3.28665e-009 2.3029e-009 7.94192e-010 5.68643e-009 3.98142e-009 4.56496e-010 3.28665e-009 2.3029e-009 -7.73091 5.47488 -0.417314 4.56502e-010 3.28665e-009 2.3029e-009 -2.90554 0.965183 -0.102902 4.56496e-010 3.28665e-009 2.30289e-009 -10.2786 0.731801 -0.0259123 4.56506e-010 3.28665e-009 2.30288e-009 -2.22167 -0.733487 0.20892 -2.03217e-016 0 -3.88251e-019 9.31485 -15.4417 14.0257 -0.0993198 25.9495 0.545984 -0.874036 -13.1559 -1.73524 2.03217e-016 0 3.88251e-019 3.23156 -39.682 -11.8197 0.0360449 12.6738 -0.208468 3.80299 -12.3084 11.4246 
69.1988 85.9438 59.3888 14.2889 3.71781 -57.9449 -4.11815 -13.3788 1.11254 2.75007 -2.75522 0.416778 -1.65523 13.3389 0.545099 4.72078 -31.1845 2.48432 -0 0 0 -0 0 0 -1.2589e-013 -2.20461e-013 6.17659e-013 84.2248 52.9693 -20.5934 -26.52 -24.8496 59.0476 -0.204759 -12.7859 -1.82768 8.86331e-010 -1.39348e-009 -6.07628e-010 1.52997e-009 -2.40792e-009 -1.04451e-009 8.86331e-010 -1.39348e-009 -6.07641e-010 7.73091 5.47488 0.417314 8.86332e-010 -1.39349e-009 -6.07628e-010 2.90554 0.965183 0.102902 8.86339e-010 -1.39349e-009 -6.07629e-010 10.2786 0.731801 0.0259123 8.86328e-010 -1.39349e-009 -6.07625e-010 2.22167 -0.733487 -0.20892 -1.25972e-013 -2.20456e-013 6.1745e-013 -91.5633 33.1118 32.6408 14.2477 -7.15621 -26.0534 0.00202496 1.34122 -0.188527 7.89848e-010 3.92744e-009 3.66896e-009 1.37342e-009 6.79864e-009 6.34552e-009 7.89845e-010 3.92743e-009 3.66896e-009 -7.73091 5.47488 -0.417314 7.8985e-010 3.92744e-009 3.66896e-009 -2.90554 0.965183 -0.102902 7.89844e-010 3.92744e-009 3.66895e-009 -10.2786 0.731801 -0.0259123 7.89856e-010 3.92744e-009 3.66895e-009 -2.22167 -0.733487 0.20892 -2.03217e-016 0 -3.88251e-019 9.28166 -14.9074 13.9552 -0.101551 25.8109 0.52918 -0.734274 -12.7689 -1.35321 2.03217e-016 0 3.88251e-019 3.33866 -39.205 -13.1999 0.0252059 11.1187 -0.187624 4.22537 -12.9229 12.4592 
68.6082 85.8958 59.9037 14.2534 3.72608 -58.2652 -4.03645 -13.3338 1.00399 2.74971 -2.75589 0.382751 -1.34442 13.0929 0.47505 4.0338 -30.8369 2.13023 -0 0 0 -0 0 0 -2.30926e-013 -3.77694e-013 5.12119e-013 84.3374 52.6081 -20.7838 -26.5071 -24.8119 58.9814 -0.201264 -12.6774 -1.81165 1.71845e-009 -1.24616e-009 4.76422e-010 2.9553e-009 -2.13225e-009 8.37019e-010 1.71845e-009 -1.24615e-009 4.76412e-010 7.73091 5.47488 0.417314 1.71845e-009 -1.24617e-009 4.76425e-010 2.90554 0.965183 0.102902 1.71846e-009 -1.24616e-009 4.76424e-010 10.2786 0.731801 0.0259123 1.71845e-009 -1.24616e-009 4.76428e-010 2.22167 -0.733487 -0.20892 -2.31015e-013 -3.77689e-013 5.1192e-013 -91.0826 32.7882 32.4359 14.1337 -7.0629 -25.8235 0.00328536 1.63641 -0.230046 1.18126e-009 3.87405e-009 4.10416e-009 2.05093e-009 6.70726e-009 7.09836e-009 1.18125e-009 3.87404e-009 4.10416e-009 -7.73091 5.47488 -0.417314 1.18126e-009 3.87405e-009 4.10417e-009 -2.90554 0.965183 -0.102902 1.18125e-009 3.87405e-009 4.10416e-009 -10.2786 0.731801 -0.0259123 1.18127e-009 3.87405e-009 4.10415e-009 -2.22167 -0.733487 0.20892 -2.03217e-016 0 -3.88251e-019 9.15469 -14.4312 13.8155 -0.104001 25.7434 0.51576 -0.594992 -12.4094 -0.952194 2.03217e-016 0 3.88251e-019 3.38371 -38.8927 -13.8494 0.0183401 9.95608 -0.169209 4.48559 -13.2511 13.1203 
